<?xml version="1.0" encoding="UTF-8" standalone="no"?>
<svg
   xmlns:dc="http://purl.org/dc/elements/1.1/"
   xmlns:cc="http://creativecommons.org/ns#"
   xmlns:rdf="http://www.w3.org/1999/02/22-rdf-syntax-ns#"
   xmlns:svg="http://www.w3.org/2000/svg"
   xmlns="http://www.w3.org/2000/svg"
   xmlns:sodipodi="http://sodipodi.sourceforge.net/DTD/sodipodi-0.dtd"
   xmlns:inkscape="http://www.inkscape.org/namespaces/inkscape"
   width="64"
   height="64"
   viewBox="0 0 64 64"
   version="1.1"
   id="svg16"
   sodipodi:docname="icon_orbit.svg"
   inkscape:version="0.92.1 r15371">
  <metadata
     id="metadata22">
    <rdf:RDF>
      <cc:Work
         rdf:about="">
        <dc:format>image/svg+xml</dc:format>
        <dc:type
           rdf:resource="http://purl.org/dc/dcmitype/StillImage" />
        <dc:title></dc:title>
      </cc:Work>
    </rdf:RDF>
  </metadata>
  <defs
     id="defs20" />
  <sodipodi:namedview
     pagecolor="#ffffff"
     bordercolor="#666666"
     borderopacity="1"
     objecttolerance="10"
     gridtolerance="10"
     guidetolerance="10"
     inkscape:pageopacity="0"
     inkscape:pageshadow="2"
     inkscape:window-width="1366"
     inkscape:window-height="715"
     id="namedview18"
     showgrid="false"
     inkscape:zoom="3.6875"
     inkscape:cx="32"
     inkscape:cy="32"
     inkscape:window-x="-8"
     inkscape:window-y="-8"
     inkscape:window-maximized="1"
     inkscape:current-layer="svg16" />
  <g
     fill="#2F2F2F"
     fill-rule="evenodd"
     id="g14">
    <g
       transform="matrix(-1 0 0 1 45 8)"
       id="g6">
      <polygon
         points="0 22 6 22 3 28"
         id="polygon2" />
      <path
         d="M3.75189713,37 C5.71034519,43.6185472 9.12065646,48 13,48 C19.0751322,48 24,37.254834 24,24 C24,10.745166 19.0751322,0 13,0 C6.92486775,0 2,10.745166 2,24 C2,24.6735065 2.01271538,25.3405333 2.03765096,26 L4.03964302,26 C4.01345591,25.3418506 4,24.6747876 4,24 C4,11.7211072 8.45550748,2 13,2 C17.5444925,2 22,11.7211072 22,24 C22,36.2788928 17.5444925,46 13,46 C10.2652306,46 7.56268577,42.4796457 5.84393759,37 L3.75189713,37 Z"
         id="path4" />
    </g>
    <g
       transform="matrix(0 -1 -1 0 56 45)"
       id="g12">
      <polygon
         points="0 22 6 22 3 28"
         id="polygon8" />
      <path
         d="M3.75189713,37 C5.71034519,43.6185472 9.12065646,48 13,48 C19.0751322,48 24,37.254834 24,24 C24,10.745166 19.0751322,0 13,0 C6.92486775,0 2,10.745166 2,24 C2,24.6735065 2.01271538,25.3405333 2.03765096,26 L4.03964302,26 C4.01345591,25.3418506 4,24.6747876 4,24 C4,11.7211072 8.45550748,2 13,2 C17.5444925,2 22,11.7211072 22,24 C22,36.2788928 17.5444925,46 13,46 C10.2652306,46 7.56268577,42.4796457 5.84393759,37 L3.75189713,37 Z"
         id="path10" />
    </g>
  </g>
</svg>
